<svg version="1.2" baseProfile="tiny" xmlns="http://www.w3.org/2000/svg" viewBox="-133 214.4 575.2 171.9" class="logo"><style>.logo {width: 20rem; }.cloud &gt; * { opacity: 0; -webkit-animation-duration: 0.6s; animation-duration: 0.6s; -webkit-animation-direction: normal; animation-direction: normal; -webkit-animation-iteration-count: infinite; animation-iteration-count: infinite; -webkit-animation-timing-function: steps(1); animation-timing-function: steps(1); } @-webkit-keyframes cloud-1 { 0% { opacity: 1; } 33.33333% { opacity: 0; } } @keyframes cloud-1 { 0% { opacity: 1; } 33.33333% { opacity: 0; } } .cloud &gt; :nth-child(1) { -webkit-animation-name: cloud-1; animation-name: cloud-1; } @-webkit-keyframes cloud-2 { 33.33333% { opacity: 1; } 66.66667% { opacity: 0; } } @keyframes cloud-2 { 33.33333% { opacity: 1; } 66.66667% { opacity: 0; } } .cloud &gt; :nth-child(2) { -webkit-animation-name: cloud-2; animation-name: cloud-2; } @-webkit-keyframes cloud-3 { 66.66667% { opacity: 1; } 100% { opacity: 0; } } @keyframes cloud-3 { 66.66667% { opacity: 1; } 100% { opacity: 0; } } .cloud &gt; :nth-child(3) { -webkit-animation-name: cloud-3; animation-name: cloud-3; } .stroke &gt; * { opacity: 0; -webkit-animation-duration: 0.6s; animation-duration: 0.6s; -webkit-animation-direction: normal; animation-direction: normal; -webkit-animation-iteration-count: infinite; animation-iteration-count: infinite; -webkit-animation-timing-function: steps(1); animation-timing-function: steps(1); } @-webkit-keyframes stroke-1 { 0% { opacity: 1; } 33.33333% { opacity: 0; } } @keyframes stroke-1 { 0% { opacity: 1; } 33.33333% { opacity: 0; } } .stroke &gt; :nth-child(1) { -webkit-animation-name: stroke-1; animation-name: stroke-1; } @-webkit-keyframes stroke-2 { 33.33333% { opacity: 1; } 66.66667% { opacity: 0; } } @keyframes stroke-2 { 33.33333% { opacity: 1; } 66.66667% { opacity: 0; } } .stroke &gt; :nth-child(2) { -webkit-animation-name: stroke-2; animation-name: stroke-2; } @-webkit-keyframes stroke-3 { 66.66667% { opacity: 1; } 100% { opacity: 0; } } @keyframes stroke-3 { 66.66667% { opacity: 1; } 100% { opacity: 0; } } .stroke &gt; :nth-child(3) { -webkit-animation-name: stroke-3; animation-name: stroke-3; } .fire &gt; * { opacity: 0; -webkit-animation-duration: 0.6s; animation-duration: 0.6s; -webkit-animation-direction: normal; animation-direction: normal; -webkit-animation-iteration-count: infinite; animation-iteration-count: infinite; -webkit-animation-timing-function: steps(1); animation-timing-function: steps(1); } @-webkit-keyframes fire-1 { 0% { opacity: 1; } 33.33333% { opacity: 0; } } @keyframes fire-1 { 0% { opacity: 1; } 33.33333% { opacity: 0; } } .fire &gt; :nth-child(1) { -webkit-animation-name: fire-1; animation-name: fire-1; } @-webkit-keyframes fire-2 { 33.33333% { opacity: 1; } 66.66667% { opacity: 0; } } @keyframes fire-2 { 33.33333% { opacity: 1; } 66.66667% { opacity: 0; } } .fire &gt; :nth-child(2) { -webkit-animation-name: fire-2; animation-name: fire-2; } @-webkit-keyframes fire-3 { 66.66667% { opacity: 1; } 100% { opacity: 0; } } @keyframes fire-3 { 66.66667% { opacity: 1; } 100% { opacity: 0; } } .fire &gt; :nth-child(3) { -webkit-animation-name: fire-3; animation-name: fire-3; }</style><g id="Слой_1"><g id="slotsup"><path fill="#013657" d="M438.2 280.8c-2.7-7-6.8-13.3-12-18.8-5-5.2-10.8-9.3-17-12-6-2.7-12.7-4-19.6-4-5.2 0-10.3 1-15 2.7-.4 0-.7-.3-1-.4-1.6-.7-3.4-1-5.2-1h-1.2l-29.8 2.4v-17.2c0-2-.5-3.8-1.2-5.5-.7-1.7-1.8-3.3-3.3-4.7-2.6-2.3-6-3.8-9.6-3.8h-1.1l-34.7 2.6c-1.5.2-3 .6-4.2 1-2.5-2-5.8-3.4-9.3-3.4h-1l-34.7 2.6c-3.6.3-7 2-9.2 4.4-2.3 2.5-3.7 6-3.7 9.5v14h-.2c-4.7-1-9.3-2-13.8-2.5-4.4-.5-8.5-.8-12.4-.8-7.7 0-14.6 1-21 3-3 1.2-6.2 2.6-9 4.4-.8-.8-1.7-1.6-2.7-2.2-1-.7-2.3-1.3-3.6-1.7v-10c0-2.5-.7-4.8-1.8-6.8-1-2-2.7-3.8-4.7-5l-.3-.3c-2-1.3-4.6-2.2-7.3-2.2-2 0-4 .4-5.8 1.2l-27 12.2c-3-1.2-6.7-1.5-9.7-1.5-5.3 0-18 1.2-30 11.3-5.7-1.6-11.5-2.3-17.6-2.3-9 0-17.2 1.6-24.7 4.7-6.6 2.8-12.6 6.8-18 12V228c0-2-.4-4-1.2-5.7-.7-1.7-1.8-3.2-3.2-4.5-1.3-1.2-2.7-2-4.3-2.7-1.6-.6-3.3-1-5-1H1l-31 2.6c-1.8 0-3.6.6-5 1.3-2.3 1-4 2.8-5.4 4.7-1.2-.6-2.5-1-3.8-1.4-6-1.2-11.7-2-16.5-2.5-4.7-.3-10-.5-15.6-.5-9 0-17.4 1.2-24.8 4-7.3 2.5-13.8 6.6-19 12-4.3 4.5-7.7 9.7-9.8 15.4-2.2 5.7-3.2 12-3.2 18.5 0 5 .6 9.7 2 14 1.2 4.5 3 8.6 5.7 12.3 1 1.6 2.3 3 3.7 4.5-.4 0-.7.2-1 .4-1.6.5-3 1.3-4 2.2-1.7 1.3-3 3-4 4.8-.8 1.8-1.3 4-1.3 6v31.5c0 2 .4 3.8 1 5.4 1.2 2.5 3 4.7 5.2 6.2 2 1.3 4.7 2.2 7.5 2.3 2.7.4 6 1 10 2 .6 0 1 0 1.4.2h.4c4.5.6 9.8 1 16 1 11.3 0 21.4-1.5 30.2-4.5 4.4-1.5 8.4-3.5 12-5.8 2-1.2 4-2.6 5.6-4 0 1.6.5 3.2 1.2 4.6.8 1.7 2 3.2 3.3 4.5 1.4 1.2 2.8 2 4.4 2.7 1.6.6 3.3 1 5 1h1.4l31-2.6c1.8-.2 3.6-.7 5-1.4 2-1 3.7-2.4 5-4 1 1.6 2.5 3 4.3 4v.2h.2c1.5 1 3.2 1.6 5 2 1 2 2.7 3.7 4.7 5 2.3 1.6 5.2 2.4 8 2.4 4.5 0 8.7-2 11.5-5.2 3.8.7 7.7 1 11.8 1 8 0 15.8-1.3 23-4 7-3 13.5-7.2 19.2-12.7 2-2 4-4 5.7-6.2l1 2.6c1.5 3 3.3 5.8 5.5 8 2.2 2.5 4.7 4.6 7.5 6.3 3.5 2.2 7.5 3.8 11.8 4.8 4 1 15 1.8 16 1.7l8.2-.4c2.6-.2 5-1.2 7-2.6 3.3.7 7 1.4 11.2 2 5 .5 10.8 1 17 1 7 0 13.4-1 19.3-2.5 5.8-1.6 11-4 15.6-7.5 3.4-2.7 6.3-5.8 8.6-9.2 1.5 2 3.4 4 5.4 6 5 4.3 10.7 7.7 17 10 6.5 2 13.4 3.2 20.8 3.2 8 0 15.4-1 22.2-3 6.7-2 13-5 18-9h.2c2-1.6 3.8-3.3 5.5-5v28c0 2 .6 4 1.4 5.6.8 1.7 2 3.2 3.3 4.5 1.2 1 2.6 2 4.2 2.7 1.3.6 2.8 1 4.3 1 .6 0 1.3.2 2 0l31-2.5c1.8-.2 3.6-.7 5-1.4 2.4-1.2 4.3-3 5.7-5 1.3-2.2 2-4.8 2-7.5V362l4.7.2c7 0 13.5-1.4 19.8-4 6.2-2.8 12-6.8 17.2-12 5.6-5.5 10-12 12.8-19 3-7 4.3-15 4.3-23-.6-8.6-2-16.2-4.6-23.2zm-331.8-36l-.5.7c-1.3 2-2 4-2.3 6.3l-1.4 1.4c-1.7 2-2.8 4.2-3.3 6.8v.6c-4.3-3.7-9-6.7-14-9 7.7-5.3 15.6-6.8 21.4-6.8zm-48.6 59.6l.4-.4-.4.4zm181.6-69.2v59.5-59.5zm49.2 70.7v-3.6 3.5zm0-70.7v57-57.2.3zm50 136.8v-84.3V372zm0-95.4v-13 13z"/><g id="XMLID_41_"><path id="XMLID_114_" fill="#FFF" d="M-41 310.7c0 9.4-2.6 17-8 23-8 9.2-22 13.8-41.5 13.8-5.8 0-10.5-.3-14.2-.8l-12.2-2.4h-1V313c6.2 1.2 11.3 2 15.5 2.5 4.2.4 8.2.6 12 .6 3.6 0 6.4 0 8-.5 3.6-1 5.4-2.6 5.4-5.3 0-1.7-1-3-2.7-4.3 0-.2-4.2-1.8-12.2-5-10.8-4-18-9-22-14.3-3.3-4.8-5-10.8-5-18 0-10 3-18 9-24.4 7.6-7.8 18.8-11.7 33.7-11.7 5.3 0 10 .2 14.4.6 4.4.4 9.3 1 14.8 2.3V267c-5.5-1.6-10-2.7-13.8-3.2-3.6-.5-7-.8-9.8-.8-4.8 0-8.3.5-10.4 1.4s-3.2 2.2-3.2 4c0 2 2 4 6.2 5.5l6 2c10.6 4.4 18 8.6 22.5 12.7 6 5.6 8.8 13 8.8 22z"/><path id="XMLID_116_" fill="#FFF" d="M2.3 343.7l-31 2.6V231l31-2.6v115.3z"/><path id="XMLID_121_" fill="#FFF" d="M160.5 318.7l-5 28.3-4.6.2c-2 0-3.5 0-4.4.2-8 0-14-1.4-18.6-4.2-7-4.3-10.4-11.7-10.4-22.4V287h-9.4l4.5-24.6h5V253l31-14.2v23.6h9.8V287h-9.8v25c0 2.8.2 4.4.6 5 1 1.5 3 2.2 6 2.2l5.2-.5z"/><path id="XMLID_123_" fill="#FFF" d="M227.6 321.3c0 8-3 14.2-9.3 19s-15 7.2-26.4 7.2c-6 0-11-.3-15.2-1s-8-1.2-11-2V318c3.4 1 6.7 1.7 9.8 2.2s5.7.7 7.8.7c4 0 6.6-.4 8-1 1.5-.8 2.3-2 2.3-3 0-2-2-3.6-6-5-6.5-2.4-10.3-4-11.6-5-4.2-2.5-7.2-6-9-10.5-1.3-3-2-6.6-2-10.4 0-6.7 2.4-12.4 7-17 6-6 15-9 27.2-9 3.2 0 6.8.2 10.8.7s8 1.2 12.4 2.2v26.6c-2.8-1-5.8-1.5-9-2s-6-.5-8.6-.5c-2.8 0-4.7.3-6 1s-1.7 1.4-1.7 2.7c0 1.6 1.6 3 4.7 4s6.2 2.3 9.3 3.2c4.4 1.8 8 4.2 10.7 7.2 4 4.2 6 9.7 6 16.3z"/><path id="XMLID_125_" fill="#F7AF26" d="M323.4 309.4c0 12.7-4.3 22.3-12.8 29-7.8 6-18.4 9-31.8 9-11.7 0-21.2-3.2-28.5-9.7s-11-15.8-11-28v-74.5l34.8-2.6v74.6c0 3.2.7 5.5 2 7 1 1.3 3 2 5.7 2 2.8 0 4.7-1 5.8-3 .7-1.4 1-3.4 1-6v-73l34.8-2.5v77.7z"/><path id="XMLID_127_" fill="#F7AF26" d="M428.2 303.4c0 13-4.3 23.8-13 32.3-8 8-17 11.8-27 11.8-4.5 0-8.5-.7-12-2.2-2.5-1-4.6-2.5-6.6-4.2v28.6l-31 2.6V263.7l29.8-2.4v8.3h.6c2.2-2.7 4.7-4.8 7.5-6.4 4-2.2 8.3-3.4 13-3.4 10 0 19 4 26.5 11.8 8 8.5 12.2 19 12.2 31.8zm-33.8.3c0-3.5-1-6.5-3.4-9s-5.3-3.8-9-3.8-6.5 1-9 3.6c-2.2 2.5-3.4 5.5-3.4 9 0 3.6 1.2 6.6 3.6 9s5.4 4 9 4c3.5 0 6.5-1.4 8.8-4 2.3-2.4 3.4-5.4 3.4-9z"/></g></g><g id="moon_1_"><circle id="XMLID_33_" fill="#FCF0C5" stroke="#F7AF26" cx="58.4" cy="303.1" r="46.9"/><path id="XMLID_37_" fill="#F7E6B6" d="M93 282.4C85.6 298 71 299 60 303c-15 5.2-24.8 11-31.8 23.8 7 10.3 19 17 32.4 17 21.6 0 39.2-17.4 39.2-39 0-8.4-2.7-16-7-22.4z"/><g id="moon" stroke="#F7AF26"><path id="XMLID_36_" fill="#FCF0C5" stroke-width="2" d="M22.6 274.3c-4.5 5.4-7.8 11.8-9.6 19 1.2.4 2.6.7 4 .7 6 0 10.6-4.8 10.6-10.6 0-3.8-2-7.2-5-9z"/><circle id="XMLID_27_" fill="none" stroke-width="3" cx="41.6" cy="319.8" r="6.5"/><circle id="XMLID_29_" fill="#FCF0C5" stroke-width="2" cx="25.3" cy="315.2" r="4.6"/><circle id="XMLID_30_" fill="none" stroke-width="2" cx="84.8" cy="322.7" r="6.8"/><circle id="XMLID_31_" fill="none" stroke-width="2" cx="93.1" cy="308.1" r="4.6"/><circle id="XMLID_32_" fill="#FCF0C5" stroke-width="3" cx="52.2" cy="287.9" r="10.6"/></g></g><g id="rocket_1_"><g id="rocket"><path id="XMLID_3_" fill="#FB2290" d="M67.8 317.8c-1-1 7-31.3 7-31.3l24.7-24.7s1.7 28.5-1.4 37.3c-1.3 4-28.8 20.2-30.2 18.8z"/><path id="XMLID_5_" fill="#D65591" d="M43.6 293.6c1 1 31.3-7 31.3-7L99.5 262S71 260 62.3 263.2c-4 1.3-20 29-18.7 30.3z"/><g id="body"><path id="XMLID_6_" fill="#D74B98" d="M104.6 282.6c-14.8 14.8-28 28-41 15s.3-26 15-41c15-14.7 33.6-12.5 36-10 2.5 2.4 4.8 21.2-10 36z"/><path id="XMLID_81_" fill="#FB2290" d="M114.8 246.7h-.2l-51 51c13 13 26-.3 41-15 14.8-15 12-34 10.2-36z"/></g></g><circle id="XMLID_23_" fill="#FB2290" cx="99.1" cy="262.4" r="10.6"/><circle id="XMLID_21_" fill="#373B6A" cx="99.1" cy="262.4" r="8.8"/><path id="XMLID_26_" fill="#F7AF26" d="M104 257.4c-2.3-2.4-6.5-3.2-8.8-1-2.3 2.4-1.6 6.6 1 9 2.3 2.4 6.5 3.2 8.8 1 2.3-2.4 1.5-6.6-1-9z"/></g><g id="light" class="stroke"><g id="_x33__1_"><path id="XMLID_95_" fill="#FFA0CB" d="M114.4 259.5l-.2 1.4-.3 1.5-.6 2c0 .5-.2 1-.3 1.3l-.3 1.3c0 .5-.3 1-.4 1.4l-.5 1.3-.3.7-.3.7-.7 1.5-.8 1.4-.8 1.2-1 1.3-1 1.2-.5.6-.5.6-1 1-1 1-1 1-1.8 2c-1 1-2 2-2.7 2.5l-1 1 .8-1 2.5-3 1.7-1.8 1-1 .8-1 1-1.2.8-1.2 1-1.2 1-1.2.7-1.3.8-1.3.7-1.3c0-.3.2-.5.3-.8l.3-.7.6-1.3.5-1.3v-.7l.3-.6c0-.4.3-.8.4-1l.6-2 .4-1.7.7-1.5z"/><path id="XMLID_94_" fill="#FB2290" d="M103.7 282H100l.4 1.5h3z"/><path id="XMLID_93_" fill="#FB2290" d="M107 278H99v1.7h8.3z"/><path id="XMLID_92_" fill="#FB2290" d="M105.3 273.8h5v1.3h-5z"/></g><g id="_x32__1_"><path id="XMLID_66_" fill="#FFA0CB" d="M114.4 259.5l-.2 1.4-.3 1.5-.6 2c0 .5-.2 1-.3 1.3l-.3 1.3c0 .5-.3 1-.4 1.4l-.5 1.3-.3.7-.3.7-.7 1.5-.8 1.4-.8 1.2-1 1.3-1 1.2-.5.6-.5.6-1 1-1 1-1 1-1.8 2c-1 1-2 2-2.7 2.5l-1 1 .8-1 2.5-3 1.7-1.8 1-1 .8-1 1-1.2.8-1.2 1-1.2 1-1.2.7-1.3.8-1.3.7-1.3c0-.3.2-.5.3-.8l.3-.7.6-1.3.5-1.3v-.7l.3-.6c0-.4.3-.8.4-1l.6-2 .4-1.7.7-1.5z"/><path id="XMLID_57_" fill="#FB2290" d="M104 281h-3.6l.3 1.8h3z"/><path id="XMLID_54_" fill="#FB2290" d="M107.5 277.3h-8.3v1.6h8.3z"/><path id="XMLID_28_" fill="#FB2290" d="M105.7 273h5v1.3h-5z"/></g><g id="_x31__1_"><path id="XMLID_74_" fill="#FFA0CB" d="M114.4 259.5l-.2 1.4-.3 1.5-.6 2c0 .5-.2 1-.3 1.3l-.3 1.3c0 .5-.3 1-.4 1.4l-.5 1.3-.3.7-.3.7-.7 1.5-.8 1.4-.8 1.2-1 1.3-1 1.2-.5.6-.5.6-1 1-1 1-1 1-1.8 2c-1 1-2 2-2.7 2.5l-1 1 .8-1 2.5-3 1.7-1.8 1-1 .8-1 1-1.2.8-1.2 1-1.2 1-1.2.7-1.3.8-1.3.7-1.3c0-.3.2-.5.3-.8l.3-.7.6-1.3.5-1.3v-.7l.3-.6c0-.4.3-.8.4-1l.6-2 .4-1.7.7-1.5z"/><path id="XMLID_73_" fill="#FB2290" d="M106.4 279h-4.7l.4 1.7h3z"/><path id="XMLID_72_" fill="#FB2290" d="M108.8 275.2h-8.2v1.6h8.2z"/><path id="XMLID_67_" fill="#FB2290" d="M107 271h5v1.2h-5z"/></g></g><g id="fire" class="fire"><g id="_x1_"><path id="_x33_" fill="#4191D4" d="M48.2 310c-1.3 2.8 0 4 1 3 3.2-3.3 5.7-.4 8.7-1.5 3.6-1.4 3.8-6.4 1.4-8.8s-5.5-2.5-7.6-.5c-2.2 2-2 5-1 3.8 1.3-1.8 5-2 4.3-.7-1.3 3-4.2-.8-6.8 4.7z"/></g><g id="_x2_"><path id="_x32_" fill="#4191D4" d="M47.7 310.4c-1.3 2.8-.5 4 .5 3.2 1.4-1 1.5-1 6.2-1.4 3-.3 4.8-1.4 5.3-2 2.4-2.4 2.3-5.6 0-8-2.5-2.4-5.6-2.5-7.7-.5-2.2 2-2.7 5.7-1.7 4.4 1.4-1.7 5.7-2.6 5-1.2-1.4 3-5 0-7.6 5.6z"/></g><g id="_x3_"><path id="_x31_" fill="#4191D4" d="M47.8 310c-1.2 3-1 4.5 0 3.8 1.5-1 2-1 6.5-1.5 3-.3 5-2 5.5-2.5 2.4-2.4 2.3-5.6 0-8-2.5-2.4-6.2-2-8.2 0-2.2 2-2 5.2-1 4 1.3-2 5.8-2.7 5-1.4-1.8 2.6-6 1.7-7.8 5.6z"/></g></g><g id="clouds" class="cloud"><g id="_x31__2_"><path id="XMLID_2_" fill="#E3E3E3" d="M40.3 343.5l1-1.2c2-3 1.4-6.6-1-9 1-.3 1.8-1 2.5-2 1-1.8 1.2-4 .4-5.7l.6-.6c.8-1.2.4-2.8-.8-3.6l-1-.4c.7-1.2.4-2.8-.8-3.6-1-.7-2.4-.5-3.3.4-2.8-1.5-6.2-.7-8 2-.2.4-.5 1-.6 1.6-2.6-.4-5.4.8-7 3.2-.3.6-.6 1.2-.8 2l-.5-.4c-3.2-2-7.6-1.2-9.7 2s-1.2 7.8 2 10c1.2.6 2.5 1 3.7 1-.2 2.5 1 5 3.2 6.6 2 1.3 4.5 1.5 6.6.6-.2 2.5 1 5 3.2 6.4 3.3 2 7.7 1.2 9.8-2 1.5-2.6 1.6-5.2.5-7.3z"/><path fill="#FFF" d="M40.6 324.7c.3-.5.4-1 .3-1.7-.3-.6-.7-1.2-1.2-1.7l-1-.5-.7-.2.5-.6c.6-1 .4-2-.4-3 0 .2-.2.3-.3.4-1-.6-2-.8-3.2-.8l-.3.2-.3-.2c-1.7.2-3.2 1-4.2 2.6-.3.5-.6 1-.7 1.7-2.5-.5-5.3.7-6.8 3l-1 2-.4-.3c-3.3-2-7.7-1.2-9.8 2-2 3.4-1.2 7.8 2 10 1.2.6 2.5 1 3.7 1-.2 2.5 1 5 3.2 6.6l.4.3c.7.4 1.3.6 2 .7 1.5.3 3 0 4.2-.4-.2 2.4 1 5 3.2 6.3 1.6 1 3.5 1.4 5.3 1 1-.2 1.4-.7 1.8-1.2 1.4-1.8 1.5-4.4.3-7v-.3l.2-.3 1-1c2-2.8 1.4-6.6-1.3-9.3l-.7-.5.8-.3c1-.3 2-1 2.6-1.8 1-1.6 1.2-3.6.3-5.6l-.3-.4.4-.2c.3 0 .5-.3.6-.5z"/></g><g id="_x32__2_"><path id="XMLID_4_" fill="#E3E3E3" d="M39.2 349.6c.6-1.6.7-3.3.3-4.8l1.5-1.5c1.7-2.2 2-5 1-7.3l.6-.7c1.5-2 1.5-4.5.5-6.5l.8-.7c1-1.4 1-3.4-.6-4.6.2 0 .3-.3.5-.5.8-1 .6-2.7-.4-3.4-1-.8-2.6-.6-3.3.4l-.2.5c-2.2-1-5-.5-6.6 1.6l-.7 1.4c-2.7-1.4-6.2-.7-8.2 2l-.8 1c-2.7-1.2-6.2-.5-8 2l-1 1.3s0-.2-.3-.3c-2-1.4-4.6-1-6.2 1-1.5 2-1.2 4.6.8 6 .6.5 1.3.8 2 1 .2 1 1 2.3 2 3.2 1.2.8 2.4 1.3 3.6 1.3.4 1 1 2 2.2 2.7 1.6 1.2 3.7 1.6 5.5 1.2-.3 2.7.8 5.5 3 7.3 1.6 1 3.5 1.7 5.3 1.6.3.4.7 1 1.2 1.3 2 1.4 4.6 1 6.2-1 1-1.8 1-4.2-.5-5.7z"/><path id="XMLID_113_" fill="#FFF" d="M35.5 347.7c.6-1.6.8-3.4.3-5 .6-.4 1.2-.8 1.6-1.3 1.8-2 2-5 1-7.6l.5-.6c1.5-1.8 1.5-4.5.3-6.8l.8-.6c1.3-1.4 1-3.6-.6-5l.5-.6.3-.7c-.2 0-.3.3-.5.5l-.2.5c-2.2-1-5-.5-6.6 1.6l-.7 1.4c-2.7-1.4-6.2-.7-8.2 2l-.7 1c-2.7-1.2-6.2-.5-8 2l-1 1.3s0-.2-.3-.3c-2-1.4-4.6-1-6.2 1-1.5 2-1.2 4.6.8 6 .6.5 1.3.8 2 1 .2 1 1 2.3 2 3.2 1.2.8 2.4 1.3 3.6 1.3.4 1 1 2 2.2 2.7C20 346 22 346.3 24 346c-.4 2 0 4 1.3 5.5.8.3 1.7.5 2.5.6.4.7.7 1.3 1.3 1.8.6.4 1 .8 1.7 1H32c.2 0 .3.2.4.3 1.3.2 2.6-.2 3.4-1.2 1.5-1.7 1.3-4.2-.3-6z"/></g><g id="_x33__2_"><path id="XMLID_87_" fill="#E3E3E3" d="M39 350c.4-1.8.4-3.6-.2-5.3.6-.5 1-1 1.5-1.7 1.6-2.5 1.7-5.6.4-8l.5-.8c1.4-2.2 1.3-5 0-7l.6-1c1-1.6.6-3.8-1-5h-.4c.4-.2.8-.5 1-1 .8-1 .4-2.7-.8-3.5-1.2-.8-2.8-.4-3.6.8l-.4 1c-2.6-1-5.7-.2-7.3 2.3l-.7 1.4c-3-1.3-6.8-.2-8.7 2.7-.4.3-.6.8-.8 1.3l-.8-.6c-3.3-2-7.7-1.2-9.8 2l-.7 1.5c-2.3-1.2-5-.5-6.4 1.6C.2 333 .8 336 3 337.4c1 .6 2 1 3.2.7.3 1.6 1.3 3 3 4.2 1.2.8 2.6 1.2 4 1 .5 1.2 1.4 2.2 2.5 3 2 1.2 4 1.5 6.2 1-.3 3 1 6 3.8 7.7 1.8 1 3.8 1.5 5.8 1.2.4.5.8 1 1.4 1.4 2.2 1.4 5.2.8 6.6-1.4 1.4-2.2 1-4.8-.7-6.3z"/><path id="XMLID_80_" fill="#FFF" d="M36.3 334.5l.7-.7c2-2.2 2-5 .8-7.2l1-.8c1.3-1.6 1-4-.7-5 0-.2 0-.2-.2-.3.5-.2 1-.5 1.3-1 1-1 1-2.5 0-3.4-1 0-2 .5-2.7 1.3-.2.3-.4.7-.4 1-3-1-6.6-.2-8.4 2.3L27 322c-3.6-1.3-7.8-.2-10 2.7l-.7 1.4c-.3 0-.6-.3-1-.5-3.6-2-8.6-1.2-11 2l-.8 1.5c-2.5-1.2-5.6-.5-7.2 1.6-2.8 4.3 1 6 1.3 6.4 0 0 2.7 1 4 1 0 1 2 3.2 3.2 4 1.3 1 3 1.2 4.5 1 .6 1 .7 1.7 3 3.3 1.8.7 5.2 1 7 .6-.2 3 1.4 6 4.5 7.7 2 1.2 5 2.3 8 1.8.6-.3.5-.2.8-.7 1.7-2 1.6-4.6 0-6.3.7-1.7 1-3.6.5-5.3.8-.5 1.5-1 2-1.6 2-2.4 2.4-5.5 1.3-8z"/></g></g></g></svg>
